<svg xmlns="http://www.w3.org/2000/svg" viewBox="0 0 280 90" fill="none">
  <!-- Ada signature script -->
  <path d="
    M 28 62
    C 22 62, 14 55, 14 45
    C 14 32, 24 22, 38 22
    C 50 22, 56 30, 56 38
    C 56 48, 48 56, 38 58
    C 32 59, 28 56, 28 52
    L 56 38
    C 56 38, 58 62, 58 65
    C 58 68, 60 70, 62 68
    C 65 65, 68 55, 70 48
    C 73 38, 76 28, 80 24
    C 84 20, 88 22, 88 28
    C 88 36, 80 52, 76 58
    C 72 64, 70 66, 72 66
    C 76 66, 84 56, 90 48
    L 90 48
    C 90 48, 88 62, 96 62
    C 100 62, 106 52, 108 46
    C 108 46, 102 68, 114 68
    C 120 68, 128 55, 130 48
    C 132 42, 132 36, 128 34
    C 124 32, 116 40, 114 48
    C 112 54, 112 60, 116 64
    C 120 68, 128 62, 132 56
  " stroke="#1a1a1a" stroke-width="2.5" stroke-linecap="round" stroke-linejoin="round" fill="none"/>
  <!-- Underline extending right -->
  <line x1="28" y1="74" x2="260" y2="74" stroke="#1a1a1a" stroke-width="1.2" stroke-linecap="round"/>
</svg>
